<svg width="16" height="11" viewBox="0 0 16 11" fill="none" xmlns="http://www.w3.org/2000/svg">
<path d="M-0.000488281 2.33252C-0.000488281 1.22795 0.894942 0.33252 1.99951 0.33252H7.99951V10.9992H1.99951C0.894942 10.9992 -0.000488281 10.1038 -0.000488281 8.99919V2.33252Z" fill="#33A9DC"/>
<path d="M8.24951 0.58252H13.9995C14.966 0.58252 15.7495 1.36602 15.7495 2.33252V8.99919C15.7495 9.96568 14.966 10.7492 13.9995 10.7492H8.24951V0.58252Z" fill="white" stroke="#33A9DC" stroke-width="0.5"/>
<path d="M10.3423 6.61935L9.33289 5.61005L12.6106 2.33252H14.6294" fill="#42A5F5" fill-opacity="0.8"/>
<path d="M14.6292 5.35693H12.6105L11.8544 6.11301L12.8637 7.12231" fill="#42A5F5" fill-opacity="0.8"/>
<path d="M11.8544 8.13138L12.6105 8.88745H14.6292L12.8637 7.12207" fill="#0D47A1"/>
<path d="M11.8552 6.1152L10.8473 7.12305L11.8552 8.1309L12.8631 7.12305L11.8552 6.1152Z" fill="#42A5F5"/>
<path d="M12.8631 7.12301L11.8552 8.13086L11.9959 8.27155L13.0038 7.2637L12.8631 7.12301Z" fill="url(#paint0_linear_102_2292)"/>
<path d="M11.8544 8.13138L13.3522 7.61406L12.8637 7.12207" fill="url(#paint1_linear_102_2292)"/>
<path d="M1.34685 2.33252L1.34099 3.54825H5.5817L5.58018 4.33353H1.33665L1.33359 5.54926H5.5743L5.56873 6.93583L3.96952 7.59624L2.37833 6.93583L2.37953 6.33453H1.33766L1.33289 7.79341L3.96497 8.88756L6.60702 7.79341L6.6159 5.59856L6.61859 5.15827L6.62399 3.74542L6.62939 2.33256L1.34685 2.33252Z" fill="white"/>
<path d="M8.91061 5.60969C8.32751 5.5125 8.01976 4.27341 7.99951 3.66602V6.88522C8.12099 6.52078 8.57047 5.75546 8.91061 5.60969Z" fill="#33A9DC"/>
<defs>
<linearGradient id="paint0_linear_102_2292" x1="11.8552" y1="8.13086" x2="11.9959" y2="8.27156" gradientUnits="userSpaceOnUse">
<stop offset="0.2" stop-opacity="0.15"/>
<stop offset="0.85" stop-color="#616161" stop-opacity="0.01"/>
</linearGradient>
<linearGradient id="paint1_linear_102_2292" x1="11.8544" y1="7.12207" x2="13.3522" y2="7.12207" gradientUnits="userSpaceOnUse">
<stop offset="0.2" stop-opacity="0.55"/>
<stop offset="0.85" stop-color="#616161" stop-opacity="0.01"/>
</linearGradient>
</defs>
</svg>
