<svg width="76" height="50" viewBox="0 0 76 50" fill="none" xmlns="http://www.w3.org/2000/svg">
<path d="M0.499756 3.99951C0.499756 1.79037 2.29062 -0.000488281 4.49976 -0.000488281H38V49.9998H4.49976C2.29062 49.9998 0.499756 48.209 0.499756 45.9998V3.99951Z" fill="#33A9DC"/>
<path d="M38.25 0.249512H71.5002C73.5713 0.249512 75.2502 1.92844 75.2502 3.99951V45.9998C75.2502 48.0709 73.5713 49.7498 71.5002 49.7498H38.25V0.249512Z" fill="white" stroke="#33A9DC" stroke-width="0.5"/>
<path d="M48.9816 29.4692L44.2501 24.738L59.6147 9.37451H69.0777" fill="#42A5F5" fill-opacity="0.8"/>
<path d="M69.0774 23.5508H59.6144L56.0701 27.0949L60.8015 31.8261" fill="#42A5F5" fill-opacity="0.8"/>
<path d="M56.0701 36.5578L59.6144 40.1019H69.0774L60.8015 31.8267" fill="#0D47A1"/>
<path d="M56.0738 27.1048L51.3491 31.8291L56.0738 36.5534L60.7984 31.8291L56.0738 27.1048Z" fill="#42A5F5"/>
<path d="M60.7984 31.8289L56.0737 36.5532L56.7333 37.2127L61.4579 32.4884L60.7984 31.8289Z" fill="url(#paint0_linear_102_2292)"/>
<path d="M56.0701 36.5578L63.091 34.1329L60.8015 31.8267" fill="url(#paint1_linear_102_2292)"/>
<path d="M6.81533 9.37451L6.78787 15.0733H26.6663L26.6592 18.7543H6.76753L6.75318 24.4531H26.6316L26.6055 30.9527L19.1092 34.0483L11.6504 30.9527L11.6561 28.1341H6.77226L6.74988 34.9726L19.0878 40.1014L31.4725 34.9726L31.5142 24.6842L31.5268 22.6203L31.5521 15.9975L31.5774 9.37472L6.81533 9.37451Z" fill="white"/>
<path d="M42.2708 24.736C39.5375 24.2805 38.0949 18.4722 38 15.625V30.7151C38.5694 29.0068 40.6764 25.4194 42.2708 24.736Z" fill="#33A9DC"/>
<defs>
<linearGradient id="paint0_linear_102_2292" x1="56.0737" y1="36.5532" x2="56.7332" y2="37.2128" gradientUnits="userSpaceOnUse">
<stop offset="0.2" stop-opacity="0.15"/>
<stop offset="0.85" stop-color="#616161" stop-opacity="0.01"/>
</linearGradient>
<linearGradient id="paint1_linear_102_2292" x1="56.0701" y1="31.8267" x2="63.091" y2="31.8267" gradientUnits="userSpaceOnUse">
<stop offset="0.2" stop-opacity="0.55"/>
<stop offset="0.85" stop-color="#616161" stop-opacity="0.01"/>
</linearGradient>
</defs>
</svg>
